<?xml version="1.0" encoding="utf-8"?>
<!-- Generator: Adobe Illustrator 27.8.1, SVG Export Plug-In . SVG Version: 6.00 Build 0)  -->
<svg version="1.1" id="Layer_1" xmlns="http://www.w3.org/2000/svg" xmlns:xlink="http://www.w3.org/1999/xlink" x="0px" y="0px"
	 viewBox="0 0 150 150" style="enable-background:new 0 0 150 150;" xml:space="preserve">
<style type="text/css">
	.st0{fill:#A5CDD4;}
</style>
<path class="st0" d="M20.3,105.5c0,2,1,4.3,2.3,5.7c2.3,2,5,2.3,6,2.3c2.3,0,5-1,7-3l0,0l2.3,2.3h6.3l-2.3-2.7l-3-3.7l1-1l1-1.7
	l0.7-1l-3.3-3.3l-0.7,1c-0.7,1-1.3,1.7-1.7,2.3l0,0l-3.7-4.3l0,0c2.7-2,3.7-4,3.7-6c0-3.3-2.7-6-6.3-6c-4.3,0-6.3,3.3-6.3,6
	c0,1.7,0.7,3.3,2,5l0,0l-0.7,0.7c-2,1.3-3,2.7-3.7,3.7C20.6,102.8,20.3,104.1,20.3,105.5 M29.7,90.8c1,0,2,0.7,2,1.7
	c0,0.7-0.3,1.3-1,1.7c-0.3,0.3-0.3,0.3-0.7,0.7l-0.3,0.3l0,0c-1.3-1.7-1.7-2.3-1.7-3C28,91.4,28.7,90.8,29.7,90.8 M25.3,103.8
	c0.3-0.3,1.3-1.3,2.7-2.3l0.3-0.3l4.3,5.3l0,0c-2,2-3,2.3-4,2.3c-0.3,0-1,0-1.3-0.3c-1-0.7-2-2-2-3.3C25,104.8,25,104.5,25.3,103.8"
	/>
<path class="st0" d="M103.2,107.8c0,2,1,3,3,3h1v4.7h-0.7c-5.7,0-9-3.3-9-8.7V82.4h5.3L103.2,107.8L103.2,107.8z"/>
<polygon class="st0" points="131.2,115.5 113.2,115.5 113.2,110.8 125.2,96.8 114.2,96.8 114.2,92.4 131.2,92.4 131.2,96.8 
	119.5,110.8 131.2,110.8 "/>
<path class="st0" d="M81.4,91.8c-2,0-3.7,0.3-5.7,0.7c-1.7,0.3-3.3,1-5.3,1.7c-3,1-6,1-9,1.3v-6.7h-5.3v7.4l-4.3,0.3v4.3l4.3-0.3
	v17.7h5.3v-18h0.7c0.3,0,1,0,1.3,0c1.7,0,3.7-0.3,5.3-0.7s3.7-1,5.3-1.7c0.7-0.3,1.3-0.7,2.3-0.7c1.3-0.3,3-0.7,4.3-0.7
	c3.7,0,5.3,2,5.3,6.7c-1-1.3-3.3-2-5.3-2c-5.7,0-9.7,3-9.7,7.4s3.7,7.4,9,7.4c2.7,0,5-1.3,6-3v2.3h5.3v-11
	C91.8,95.4,88.8,91.8,81.4,91.8 M81.4,111.5c-2.7,0-4.7-1.3-4.7-3.3c0-1.7,1.7-2.7,4.7-2.7s5,1,5,2.7
	C86.5,110.1,84.5,111.5,81.4,111.5"/>
<path class="st0" d="M28.3,70.1c0,7.7-4.7,12-12.4,12s-12.4-4.3-12.4-12S8.3,58,16,58C23.6,58,28.3,62.4,28.3,70.1 M22.3,70.1
	c0-4.7-2.3-7.4-6.3-7.4s-6.3,2.7-6.3,7.4c0,4.7,2.3,7.4,6.3,7.4C20,77.1,22.3,74.4,22.3,70.1"/>
<path class="st0" d="M52.7,76.1v4.3c-1.7,1-4.3,1.7-7,1.7c-8,0-12.7-4.7-12.7-12.4C33,62.4,37.7,58,45.4,58c3,0,6.3,1.3,7.4,2v4.3
	C51,63.7,48.4,63,45.4,63c-4,0-6.3,2.7-6.3,7c0,4.7,2.3,7.7,6.3,7.7C48.7,77.1,50.7,76.7,52.7,76.1"/>
<path class="st0" d="M78.4,58.4v15c0,5.3-4,8.7-10.4,8.7c-6.7,0-10.4-3.3-10.4-8.7v-15h5.3v15.7c0,2,1.7,3,5,3c3,0,5-1,5-3V58.4
	C73.1,58.4,78.4,58.4,78.4,58.4z"/>
<path class="st0" d="M89.8,73.7c0,2,1,3,3,3h1v4.7h-0.7c-5.7,0-9-3.3-9-8.7V48.3h5.3L89.8,73.7L89.8,73.7z"/>
<path class="st0" d="M121.9,70.1c0,7.7-4.7,12-12.4,12s-12.4-4.3-12.4-12s4.7-12,12.4-12C117.2,58,121.9,62.4,121.9,70.1
	 M115.5,70.1c0-4.7-2.3-7.4-6.3-7.4s-6.3,2.7-6.3,7.4c0,4.7,2.3,7.4,6.3,7.4C113.2,77.1,115.5,74.4,115.5,70.1"/>
<path class="st0" d="M136.2,58c2.3,0,5.7,0.7,8,2v4c-2.3-1-5.3-1.7-7.4-1.7c-3,0-5,1.3-5,3c0,3.3,12.7,4,12.7,9.7c0,4.3-4,7-10,7
	c-2.7,0-5.7-0.7-7.7-1.7v-4.3c2.3,0.7,5.3,1.3,7,1.3c3,0,5-1,5-2.3c0-3-13-3.3-13-9.7C126.5,60.7,130.6,58,136.2,58"/>
<polygon class="st0" points="20.6,49.7 11.3,53 12.3,56.7 22,53.3 "/>
<path class="st0" d="M102.8,27.3c-6.3,0-10.7,3-12,8.4c-0.3-0.3-1-0.3-1.3-0.3s-0.7,0-0.7,0h-0.3c-0.7,0-1.3,0-2,0h-0.3
	c-0.3,0-0.7,0-0.7,0c-0.3,0-1,0.3-1.3,0.3c-1.7-5.3-6-8.4-12.7-8.4c-7.7,0-12.4,4.3-12.4,12s4.7,12,12.4,12c5.7,0,9.7-2.3,11.4-6.3
	l0,0l-0.3,0.7c0.3-0.7,1-1.7,1.3-2.7c0.3-0.3,0.3-1,0.3-1l0,0l0,0v-0.3l0,0c0,0,0-0.3,0.3-0.3l0,0l0.3-0.3l0,0c0,0,0.3,0,0.3-0.3
	l0,0h0.3l0,0c0.3,0,0.3,0,0.7,0c0.3,0,0.3,0,0.7,0l0,0h0.3l0,0c0,0,0.3,0,0.3,0.3l0,0l0.3,0.3l0,0c0,0,0,0.3,0.3,0.3l0,0V42l0,0l0,0
	c0,0.3,0.3,0.7,0.3,1c0.3,1,1,2,1.3,2.7l1.7-0.7l0,0c1.7,4,5.7,6.3,11.4,6.3c7.7,0,12.4-4.3,12.4-12S110.5,27.3,102.8,27.3
	 M71.4,46.7c-4,0-6.3-2.7-6.3-7.4s2.3-7.4,6.3-7.4s6.3,2.7,6.3,7.4S75.4,46.7,71.4,46.7 M102.8,46.7c-4,0-6.3-2.7-6.3-7.4
	s2.3-7.4,6.3-7.4c4,0,6.3,2.7,6.3,7.4C108.8,44,106.5,46.7,102.8,46.7"/>
<path class="st0" d="M133.9,112.2c0-0.7,0-1,0.3-1.3c0-0.3,0.3-0.7,0.7-1c0.3-0.3,0.7-0.3,1-0.7c0.3,0,1-0.3,1.3-0.3
	c0.7,0,1,0,1.3,0.3c0.3,0,0.7,0.3,1,0.7s0.3,0.7,0.7,1c0,0.3,0.3,1,0.3,1.3c0,0.7,0,1-0.3,1.3c0,0.3-0.3,0.7-0.7,1
	c-0.3,0.3-0.7,0.3-1,0.7c-0.3,0-1,0.3-1.3,0.3c-0.7,0-1,0-1.3-0.3c-0.3,0-0.7-0.3-1-0.7s-0.3-0.7-0.7-1S133.9,112.5,133.9,112.2
	 M134.2,112.2c0,1,0.3,1.7,0.7,2s1.3,0.7,2,0.7c1,0,1.7-0.3,2-0.7s0.7-1.3,0.7-2c0-1-0.3-1.7-0.7-2c0-0.7-0.7-0.7-1.7-0.7
	s-1.7,0.3-2,0.7C134.6,110.5,134.2,111.1,134.2,112.2 M135.9,110.1h1.7c1,0,1.3,0.3,1.3,1.3c0,0.7-0.3,1-1,1l1,1.3h-0.7l-1-1.3h-1
	v1.3h-0.7v-3.7C135.6,110.1,135.9,110.1,135.9,110.1z M136.2,112.2h1c0.3,0,0.7,0,0.7-0.3c0,0,0.3-0.3,0.3-0.7s0-0.3-0.3-0.7
	c0,0-0.3-0.3-0.7-0.3h-1V112.2z"/>
</svg>
